<?xml version="1.0" encoding="utf-8"?>
<!-- Generator: Adobe Illustrator 17.0.0, SVG Export Plug-In . SVG Version: 6.00 Build 0)  -->
<!DOCTYPE svg PUBLIC "-//W3C//DTD SVG 1.1//EN" "http://www.w3.org/Graphics/SVG/1.1/DTD/svg11.dtd">
<svg version="1.1" xmlns="http://www.w3.org/2000/svg" xmlns:xlink="http://www.w3.org/1999/xlink" x="0px" y="0px" width="232px"
	 height="72.5px" viewBox="0 0 232 72.5" enable-background="new 0 0 232 72.5" xml:space="preserve">
<g id="Layer_3">
</g>
<g id="Layer_1">
	<g>
		<path d="M32.377,49.484h-2.32L29.26,51.5h-0.441l2.297-5.734h0.254l2.25,5.734H33.17L32.377,49.484z M30.201,49.125h2.043
			l-0.777-2.059c-0.065-0.161-0.143-0.386-0.234-0.672c-0.07,0.25-0.147,0.477-0.23,0.68L30.201,49.125z"/>
		<path d="M34.986,49.012V51.5h-0.398v-5.711h1.359c0.708,0,1.232,0.131,1.57,0.393s0.508,0.655,0.508,1.182
			c0,0.383-0.101,0.706-0.303,0.969s-0.508,0.452-0.92,0.566l1.551,2.602h-0.477l-1.473-2.488H34.986z M34.986,48.668h1.09
			c0.482,0,0.855-0.107,1.121-0.322s0.398-0.532,0.398-0.951c0-0.435-0.13-0.751-0.391-0.949s-0.685-0.297-1.273-0.297h-0.945
			V48.668z"/>
		<path d="M40.99,51.5h-0.402v-5.336h-1.855v-0.375h4.113v0.375H40.99V51.5z"/>
		<path d="M43.853,51.5v-5.711h0.398V51.5H43.853z"/>
		<path d="M46.427,51.5h-0.398v-5.711h3.129v0.367h-2.73v2.422h2.578v0.371h-2.578V51.5z"/>
		<path d="M50.204,51.5v-5.711h0.398V51.5H50.204z"/>
		<path d="M54.817,46.066c-0.716,0-1.28,0.229-1.691,0.688s-0.617,1.086-0.617,1.883c0,0.815,0.194,1.448,0.582,1.898
			s0.943,0.676,1.664,0.676c0.479,0,0.919-0.062,1.32-0.184v0.352c-0.377,0.133-0.849,0.199-1.414,0.199
			c-0.802,0-1.434-0.259-1.895-0.777s-0.691-1.242-0.691-2.172c0-0.581,0.11-1.093,0.33-1.535s0.537-0.784,0.949-1.025
			s0.893-0.361,1.439-0.361c0.557,0,1.056,0.104,1.496,0.312l-0.16,0.359C55.713,46.171,55.276,46.066,54.817,46.066z"/>
		<path d="M57.509,51.5v-5.711h0.398V51.5H57.509z"/>
		<path d="M62.434,49.484h-2.32L59.317,51.5h-0.441l2.297-5.734h0.254l2.25,5.734h-0.449L62.434,49.484z M60.258,49.125h2.043
			l-0.777-2.059c-0.065-0.161-0.143-0.386-0.234-0.672c-0.07,0.25-0.147,0.477-0.23,0.68L60.258,49.125z"/>
		<path d="M64.645,51.5v-5.711h0.398v5.336h2.723V51.5H64.645z"/>
		<path d="M71.148,51.5v-5.711h0.398V51.5H71.148z"/>
		<path d="M77.477,51.5h-0.402l-3.383-5.07H73.66c0.031,0.604,0.047,1.06,0.047,1.367V51.5h-0.383v-5.711h0.398l3.379,5.062h0.023
			c-0.023-0.469-0.035-0.914-0.035-1.336v-3.727h0.387V51.5z"/>
		<path d="M80.742,51.5H80.34v-5.336h-1.855v-0.375h4.113v0.375h-1.855V51.5z"/>
		<path d="M86.727,51.5h-3.121v-5.711h3.121v0.367h-2.723v2.16h2.57v0.367h-2.57v2.449h2.723V51.5z"/>
		<path d="M88.179,51.5v-5.711h0.398v5.336H91.3V51.5H88.179z"/>
		<path d="M92.445,51.5v-5.711h0.398v5.336h2.723V51.5H92.445z"/>
		<path d="M96.71,51.5v-5.711h0.398V51.5H96.71z"/>
		<path d="M101.132,48.621h2.105v2.605c-0.552,0.234-1.173,0.352-1.863,0.352c-0.901,0-1.592-0.255-2.072-0.764
			s-0.721-1.229-0.721-2.162c0-0.581,0.119-1.096,0.357-1.545s0.58-0.796,1.023-1.041s0.954-0.367,1.529-0.367
			c0.623,0,1.181,0.114,1.676,0.344l-0.16,0.359c-0.495-0.229-1.008-0.344-1.539-0.344c-0.752,0-1.35,0.232-1.791,0.697
			s-0.662,1.092-0.662,1.881c0,0.859,0.209,1.506,0.629,1.939s1.035,0.65,1.848,0.65c0.526,0,0.973-0.074,1.34-0.223v-2.008h-1.699
			V48.621z"/>
		<path d="M107.952,51.5h-3.121v-5.711h3.121v0.367h-2.723v2.16h2.57v0.367h-2.57v2.449h2.723V51.5z"/>
		<path d="M113.558,51.5h-0.402l-3.383-5.07h-0.031c0.031,0.604,0.047,1.06,0.047,1.367V51.5h-0.383v-5.711h0.398l3.379,5.062h0.023
			c-0.023-0.469-0.035-0.914-0.035-1.336v-3.727h0.387V51.5z"/>
		<path d="M117.772,46.066c-0.716,0-1.28,0.229-1.691,0.688s-0.617,1.086-0.617,1.883c0,0.815,0.194,1.448,0.582,1.898
			s0.943,0.676,1.664,0.676c0.479,0,0.919-0.062,1.32-0.184v0.352c-0.377,0.133-0.849,0.199-1.414,0.199
			c-0.802,0-1.434-0.259-1.895-0.777s-0.691-1.242-0.691-2.172c0-0.581,0.11-1.093,0.33-1.535s0.537-0.784,0.949-1.025
			s0.893-0.361,1.439-0.361c0.557,0,1.056,0.104,1.496,0.312l-0.16,0.359C118.668,46.171,118.23,46.066,117.772,46.066z"/>
		<path d="M123.584,51.5h-3.121v-5.711h3.121v0.367h-2.723v2.16h2.57v0.367h-2.57v2.449h2.723V51.5z"/>
		<path d="M130.025,49.484h-2.32l-0.797,2.016h-0.441l2.297-5.734h0.254l2.25,5.734h-0.449L130.025,49.484z M127.85,49.125h2.043
			l-0.777-2.059c-0.065-0.161-0.143-0.386-0.234-0.672c-0.07,0.25-0.147,0.477-0.23,0.68L127.85,49.125z"/>
		<path d="M136.389,51.5h-0.402l-3.383-5.07h-0.031c0.031,0.604,0.047,1.06,0.047,1.367V51.5h-0.383v-5.711h0.398l3.379,5.062h0.023
			c-0.023-0.469-0.035-0.914-0.035-1.336v-3.727h0.387V51.5z"/>
		<path d="M142.502,48.59c0,0.958-0.251,1.683-0.754,2.174s-1.241,0.736-2.215,0.736h-1.367v-5.711h1.543
			c0.911,0,1.604,0.238,2.08,0.715S142.502,47.676,142.502,48.59z M142.068,48.605c0-0.817-0.208-1.433-0.623-1.846
			s-1.025-0.619-1.83-0.619h-1.051v5.008h0.945C141.216,51.148,142.068,50.301,142.068,48.605z"/>
		<path d="M146.611,49.012V51.5h-0.398v-5.711h1.359c0.708,0,1.231,0.131,1.57,0.393s0.508,0.655,0.508,1.182
			c0,0.383-0.101,0.706-0.303,0.969s-0.509,0.452-0.92,0.566l1.551,2.602h-0.477l-1.473-2.488H146.611z M146.611,48.668h1.09
			c0.481,0,0.855-0.107,1.121-0.322s0.398-0.532,0.398-0.951c0-0.435-0.13-0.751-0.391-0.949s-0.685-0.297-1.273-0.297h-0.945
			V48.668z"/>
		<path d="M155.927,48.637c0,0.906-0.227,1.623-0.68,2.15s-1.078,0.791-1.875,0.791c-0.794,0-1.418-0.264-1.871-0.791
			s-0.68-1.247-0.68-2.158c0-0.909,0.229-1.624,0.686-2.146s1.081-0.783,1.873-0.783c0.797,0,1.421,0.263,1.871,0.787
			S155.927,47.728,155.927,48.637z M151.255,48.637c0,0.817,0.183,1.45,0.547,1.896s0.888,0.67,1.57,0.67
			c0.688,0,1.213-0.222,1.576-0.664s0.545-1.077,0.545-1.902c0-0.823-0.182-1.454-0.545-1.893s-0.886-0.658-1.568-0.658
			c-0.68,0-1.204,0.222-1.572,0.664S151.255,47.821,151.255,48.637z"/>
		<path d="M157.399,45.789h1.566c0.706,0,1.224,0.12,1.555,0.359s0.496,0.602,0.496,1.086c0,0.331-0.101,0.606-0.303,0.826
			s-0.497,0.361-0.885,0.424v0.023c0.456,0.067,0.791,0.212,1.006,0.432s0.322,0.526,0.322,0.92c0,0.526-0.175,0.931-0.523,1.215
			s-0.844,0.426-1.484,0.426h-1.75V45.789z M157.798,48.332h1.258c0.536,0,0.927-0.089,1.17-0.268s0.365-0.458,0.365-0.838
			s-0.138-0.656-0.412-0.828s-0.685-0.258-1.229-0.258h-1.152V48.332z M157.798,48.684v2.465h1.344c1.058,0,1.586-0.43,1.586-1.289
			c0-0.784-0.558-1.176-1.672-1.176H157.798z"/>
		<path d="M167.376,48.637c0,0.906-0.227,1.623-0.68,2.15s-1.078,0.791-1.875,0.791c-0.794,0-1.418-0.264-1.871-0.791
			s-0.68-1.247-0.68-2.158c0-0.909,0.229-1.624,0.686-2.146s1.081-0.783,1.873-0.783c0.797,0,1.421,0.263,1.871,0.787
			S167.376,47.728,167.376,48.637z M162.704,48.637c0,0.817,0.183,1.45,0.547,1.896s0.888,0.67,1.57,0.67
			c0.688,0,1.213-0.222,1.576-0.664s0.545-1.077,0.545-1.902c0-0.823-0.182-1.454-0.545-1.893s-0.886-0.658-1.568-0.658
			c-0.68,0-1.204,0.222-1.572,0.664S162.704,47.821,162.704,48.637z"/>
		<path d="M170.337,51.5h-0.402v-5.336h-1.855v-0.375h4.113v0.375h-1.855V51.5z"/>
		<path d="M173.2,51.5v-5.711h0.398V51.5H173.2z"/>
		<path d="M177.813,46.066c-0.716,0-1.28,0.229-1.691,0.688s-0.617,1.086-0.617,1.883c0,0.815,0.194,1.448,0.582,1.898
			s0.942,0.676,1.664,0.676c0.479,0,0.919-0.062,1.32-0.184v0.352c-0.378,0.133-0.849,0.199-1.414,0.199
			c-0.802,0-1.434-0.259-1.895-0.777s-0.691-1.242-0.691-2.172c0-0.581,0.11-1.093,0.33-1.535s0.536-0.784,0.949-1.025
			s0.893-0.361,1.439-0.361c0.558,0,1.056,0.104,1.496,0.312l-0.16,0.359C178.709,46.171,178.271,46.066,177.813,46.066z"/>
		<path d="M183.656,50.027c0,0.477-0.175,0.854-0.525,1.133s-0.815,0.418-1.396,0.418c-0.698,0-1.233-0.077-1.605-0.23v-0.398
			c0.411,0.175,0.937,0.262,1.574,0.262c0.469,0,0.841-0.107,1.115-0.322s0.412-0.497,0.412-0.846c0-0.216-0.046-0.396-0.137-0.537
			s-0.239-0.271-0.445-0.389s-0.508-0.243-0.906-0.379c-0.583-0.2-0.986-0.417-1.209-0.65s-0.334-0.544-0.334-0.932
			c0-0.427,0.167-0.775,0.502-1.045s0.765-0.404,1.291-0.404c0.536,0,1.04,0.102,1.512,0.305l-0.145,0.344
			c-0.474-0.198-0.927-0.297-1.359-0.297c-0.422,0-0.758,0.098-1.008,0.293s-0.375,0.461-0.375,0.797
			c0,0.211,0.038,0.384,0.115,0.52s0.202,0.257,0.377,0.365s0.474,0.237,0.898,0.389c0.445,0.153,0.78,0.303,1.004,0.447
			s0.388,0.309,0.49,0.492S183.656,49.767,183.656,50.027z"/>
		<path d="M187.262,51.5v-5.711h0.398v5.336h2.723V51.5H187.262z"/>
		<path d="M194.277,49.484h-2.32L191.16,51.5h-0.441l2.297-5.734h0.254l2.25,5.734h-0.449L194.277,49.484z M192.102,49.125h2.043
			l-0.777-2.059c-0.065-0.161-0.144-0.386-0.234-0.672c-0.07,0.25-0.147,0.477-0.23,0.68L192.102,49.125z"/>
		<path d="M196.488,45.789h1.566c0.706,0,1.224,0.12,1.555,0.359s0.496,0.602,0.496,1.086c0,0.331-0.101,0.606-0.303,0.826
			s-0.497,0.361-0.885,0.424v0.023c0.456,0.067,0.791,0.212,1.006,0.432s0.322,0.526,0.322,0.92c0,0.526-0.175,0.931-0.523,1.215
			s-0.844,0.426-1.484,0.426h-1.75V45.789z M196.887,48.332h1.258c0.536,0,0.927-0.089,1.17-0.268s0.365-0.458,0.365-0.838
			s-0.138-0.656-0.412-0.828s-0.685-0.258-1.229-0.258h-1.152V48.332z M196.887,48.684v2.465h1.344c1.058,0,1.586-0.43,1.586-1.289
			c0-0.784-0.558-1.176-1.672-1.176H196.887z"/>
	</g>
	<g>
		<path fill="#231F20" d="M37.889,16.25l-9.07,25.805h5.871l1.863-6.117l1.371-4.57c1.828-5.918,2.936-9.627,3.322-11.127
			c0.094,0.422,0.249,0.996,0.466,1.723s1.187,3.861,2.909,9.404l1.301,4.57l1.863,6.117h5.871L44.551,16.25H37.889z"/>
		<rect x="66.971" y="16.355" fill="#231F20" width="5.449" height="25.699"/>
		<path fill="#231F20" d="M105.475,28.089c0.832-1.178,1.248-2.522,1.248-4.034c0-2.59-0.838-4.521-2.514-5.792
			s-4.26-1.907-7.752-1.907h-7.488v25.699h5.449v-9.861h2.9l6.135,9.861h6.047c-1.172-1.688-3.691-5.42-7.559-11.197
			C103.465,30.189,104.643,29.267,105.475,28.089z M99.99,26.902c-0.82,0.574-2.092,0.861-3.814,0.861h-1.758V20.82h1.652
			c1.758,0,3.056,0.258,3.894,0.773s1.257,1.383,1.257,2.602C101.221,25.426,100.811,26.328,99.99,26.902z"/>
		<polygon fill="#231F20" points="125.012,16.355 123.219,16.355 123.219,42.055 137.264,42.055 137.264,40.367 125.012,40.367 		
			"/>
		<path fill="#231F20" d="M158.471,16.25l-10.336,25.805h1.986l3.586-9.07l0.65-1.617l3.604-9.229
			c0.375-0.914,0.721-1.934,1.037-3.059c0.41,1.289,0.762,2.297,1.055,3.023l3.498,9.264l0.598,1.617l3.568,9.07h2.021
			L159.613,16.25H158.471z"/>
		<path fill="#231F20" d="M198.917,30.532c-0.967-0.99-2.476-1.638-4.526-1.942v-0.105c1.746-0.281,3.073-0.917,3.981-1.907
			s1.362-2.229,1.362-3.718c0-2.18-0.744-3.809-2.232-4.887s-3.82-1.617-6.996-1.617h-7.049v25.699h7.875
			c2.883,0,5.109-0.639,6.68-1.916s2.355-3.1,2.355-5.467C200.367,32.902,199.884,31.522,198.917,30.532z M185.25,17.938h5.186
			c2.449,0,4.292,0.387,5.528,1.16s1.854,2.016,1.854,3.727s-0.548,2.968-1.644,3.771s-2.851,1.204-5.265,1.204h-5.66V17.938z
			 M191.297,40.473h-6.047V29.381h5.66c5.016,0,7.523,1.764,7.523,5.291C198.434,38.539,196.055,40.473,191.297,40.473z"/>
	</g>
	<polyline fill="#231F20" points="43.984,29.205 33.75,41 31.339,35.409 	"/>
</g>
<g id="Layer_2">
</g>
</svg>
